<?xml version="1.0" encoding="utf-8"?>
<!-- Generator: Adobe Illustrator 15.0.0, SVG Export Plug-In . SVG Version: 6.00 Build 0)  -->
<!DOCTYPE svg PUBLIC "-//W3C//DTD SVG 1.1//EN" "http://www.w3.org/Graphics/SVG/1.1/DTD/svg11.dtd">
<svg version="1.1" id="Laag_1" xmlns="http://www.w3.org/2000/svg" xmlns:xlink="http://www.w3.org/1999/xlink" x="0px" y="0px"
	 width="226.77px" height="85.04px" viewBox="0 0 226.77 85.04" enable-background="new 0 0 226.77 85.04" xml:space="preserve">
<g>
	<g>
		<path fill="#009CDE" d="M27.273,74.505c4.79,1.503,9.568,2.676,14.341,3.564c1.477-3.685,2.904-7.528,4.246-11.498
			c4.727,0.257,9.447,0.294,14.16,0.144c-1.216,4.511-2.571,8.938-4.02,13.259c4.956,0.353,9.91,0.435,14.868,0.284
			c4.066-14.767,6.757-30.045,6.655-45.271c-4.073,1.129-8.211,2.219-12.4,3.24c-0.444,4.938-1.138,9.844-2.031,14.685
			c-4.447,0.576-8.916,1.032-13.402,1.334c1.144-4.316,2.157-8.745,2.995-13.247c-4.223,0.783-8.479,1.473-12.77,2.04
			C36.406,54.912,31.882,65.679,27.273,74.505z"/>
		<path fill="#FFFFFF" d="M66.173,80.942c-3.449,0-6.886-0.118-10.216-0.356c-0.189-0.014-0.362-0.113-0.467-0.271
			c-0.106-0.158-0.131-0.356-0.072-0.535c1.408-4.195,2.683-8.371,3.794-12.427c-4.405,0.118-8.726,0.071-12.92-0.144
			c-1.256,3.69-2.637,7.419-4.108,11.089c-0.109,0.27-0.396,0.427-0.681,0.373c-4.88-0.906-9.729-2.111-14.413-3.581
			c-0.173-0.054-0.313-0.184-0.382-0.351c-0.07-0.168-0.061-0.357,0.022-0.519c5.019-9.608,9.375-20.452,12.597-31.357
			c0.068-0.232,0.268-0.402,0.507-0.434c4.094-0.541,8.379-1.226,12.739-2.034c0.197-0.036,0.401,0.027,0.545,0.17
			c0.143,0.142,0.206,0.347,0.169,0.545c-0.756,4.069-1.693,8.259-2.787,12.465c3.887-0.279,7.942-0.687,12.07-1.215
			c0.877-4.829,1.53-9.601,1.943-14.19c0.023-0.26,0.209-0.479,0.465-0.539c3.961-0.968,8.011-2.024,12.381-3.236
			c0.185-0.049,0.381-0.012,0.533,0.102c0.153,0.115,0.244,0.295,0.245,0.486c0.093,13.923-2.092,28.787-6.678,45.438
			c-0.071,0.261-0.304,0.442-0.573,0.45C69.309,80.919,67.723,80.942,66.173,80.942z M56.833,79.416
			c4.402,0.289,8.942,0.369,13.564,0.24c4.388-16.045,6.522-30.409,6.517-43.865c-3.934,1.082-7.616,2.044-11.219,2.926
			c-0.43,4.631-1.103,9.441-1.998,14.306c-0.049,0.263-0.26,0.462-0.524,0.497c-4.61,0.598-9.132,1.047-13.441,1.338
			c-0.195,0.015-0.388-0.068-0.514-0.221s-0.17-0.356-0.12-0.548c1.1-4.152,2.047-8.295,2.818-12.326
			c-3.936,0.716-7.808,1.333-11.525,1.831c-3.161,10.604-7.382,21.14-12.236,30.542c4.262,1.309,8.655,2.396,13.077,3.236
			c1.452-3.643,2.813-7.34,4.047-10.996c0.088-0.261,0.338-0.431,0.614-0.417c4.563,0.248,9.301,0.297,14.107,0.143
			c0.201-0.004,0.38,0.08,0.5,0.233c0.12,0.151,0.162,0.353,0.111,0.54C59.51,70.962,58.239,75.177,56.833,79.416z"/>
	</g>
	<g>
		<path fill="#009CDE" d="M43.07,30.865c2.937,3.026,6.095,6.332,9.411,9.891c-1.672,8.9-4.034,17.489-6.748,25.548
			c-3.342-4.194-6.627-8.117-9.78-11.738C38.741,47.221,41.22,39.245,43.07,30.865z"/>
		<path fill="#FFFFFF" d="M45.733,66.916c-0.185,0-0.362-0.084-0.479-0.229c-3.162-3.968-6.448-7.909-9.764-11.718
			c-0.148-0.17-0.191-0.409-0.111-0.62c2.979-7.849,5.366-15.794,7.091-23.615c0.049-0.22,0.214-0.396,0.431-0.457
			s0.45,0.001,0.607,0.163c3.301,3.399,6.383,6.637,9.421,9.897c0.133,0.144,0.189,0.339,0.154,0.53
			c-1.559,8.302-3.836,16.926-6.769,25.631c-0.072,0.214-0.254,0.37-0.475,0.409C45.804,66.913,45.769,66.916,45.733,66.916z
			 M36.656,54.439c3.002,3.454,5.975,7.015,8.853,10.602c2.708-8.183,4.831-16.282,6.313-24.094c-2.72-2.917-5.479-5.819-8.402-8.84
			C41.729,39.515,39.456,47.02,36.656,54.439z"/>
	</g>
	<g>
		<path fill="#009CDE" d="M17.797,62.177c4.669,1.218,9.323,2.146,13.967,2.825c1.471-3.254,2.9-6.687,4.256-10.269
			c4.542-0.029,9.063-0.254,13.562-0.641c-1.16,4.194-2.442,8.278-3.816,12.229c4.853,0.209,9.695,0.185,14.527-0.041
			c3.539-13.757,5.816-28.229,5.49-42.811c-3.671,1.309-7.43,2.606-11.26,3.859c-0.453,4.689-1.135,9.324-1.997,13.875
			c-4.179,0.777-8.396,1.463-12.642,2.025c1.194-4,2.27-8.133,3.186-12.365c-3.8,1.054-7.654,2.044-11.55,2.946
			C27.567,44.875,22.704,54.626,17.797,62.177z"/>
		<path fill="#FFFFFF" d="M52.484,67.079c-2.264,0-4.534-0.049-6.746-0.146c-0.193-0.008-0.371-0.106-0.479-0.267
			c-0.109-0.161-0.136-0.363-0.072-0.545c1.31-3.771,2.508-7.583,3.566-11.344c-4.189,0.339-8.324,0.528-12.31,0.565
			c-1.285,3.37-2.67,6.701-4.121,9.912c-0.113,0.249-0.38,0.391-0.647,0.355c-4.742-0.694-9.463-1.649-14.033-2.838
			c-0.189-0.051-0.345-0.189-0.417-0.373c-0.07-0.183-0.049-0.39,0.058-0.556c5.188-7.985,9.91-17.748,13.659-28.237
			c0.07-0.196,0.235-0.345,0.439-0.392c3.702-0.857,7.578-1.847,11.524-2.938c0.207-0.058,0.428-0.004,0.584,0.144
			c0.156,0.146,0.224,0.367,0.178,0.576c-0.82,3.789-1.805,7.653-2.929,11.5c3.632-0.497,7.414-1.107,11.261-1.818
			c0.848-4.535,1.491-9.045,1.91-13.406c0.024-0.244,0.189-0.449,0.42-0.525c3.576-1.17,7.254-2.43,11.246-3.853
			c0.185-0.065,0.391-0.038,0.553,0.072c0.162,0.112,0.261,0.294,0.265,0.491c0.298,13.351-1.504,27.406-5.509,42.977
			c-0.068,0.261-0.298,0.446-0.566,0.46C57.682,67.017,55.046,67.079,52.484,67.079z M46.614,65.742
			c4.285,0.163,8.7,0.145,13.198-0.053c3.814-14.955,5.574-28.498,5.375-41.355c-3.554,1.262-6.868,2.395-10.093,3.453
			c-0.438,4.408-1.098,8.959-1.965,13.531c-0.046,0.25-0.241,0.443-0.489,0.489c-4.344,0.81-8.608,1.491-12.674,2.03
			c-0.207,0.027-0.412-0.052-0.547-0.21c-0.134-0.157-0.181-0.374-0.121-0.573c1.128-3.781,2.121-7.588,2.956-11.328
			c-3.508,0.96-6.956,1.836-10.269,2.607c-3.649,10.147-8.206,19.616-13.21,27.462c4.122,1.042,8.361,1.894,12.621,2.532
			c1.428-3.182,2.791-6.481,4.052-9.813c0.089-0.236,0.316-0.395,0.569-0.396c4.361-0.028,8.908-0.242,13.513-0.639
			c0.2-0.016,0.396,0.066,0.524,0.22c0.129,0.154,0.173,0.362,0.119,0.558C49.122,58.059,47.926,61.919,46.614,65.742z"/>
	</g>
	<g>
		<path fill="#009CDE" d="M41.615,78.069c-3.317-4.655-6.627-9.023-9.851-13.067c-4.644-0.679-9.298-1.607-13.967-2.825
			c3.067,3.756,6.252,7.874,9.477,12.328C32.063,76.008,36.842,77.181,41.615,78.069z"/>
		<path fill="#FFFFFF" d="M41.615,78.682c-0.037,0-0.074-0.003-0.112-0.011c-4.88-0.906-9.729-2.111-14.413-3.581
			c-0.125-0.039-0.236-0.118-0.313-0.226c-3.061-4.227-6.242-8.366-9.454-12.299c-0.168-0.205-0.185-0.495-0.042-0.719
			c0.143-0.223,0.414-0.331,0.67-0.262c4.526,1.179,9.203,2.124,13.901,2.811c0.154,0.022,0.293,0.104,0.39,0.225
			c3.396,4.26,6.716,8.665,9.871,13.093c0.145,0.204,0.152,0.475,0.017,0.687C42.018,78.576,41.822,78.682,41.615,78.682z
			 M27.651,73.98c4.094,1.276,8.314,2.351,12.57,3.195c-2.826-3.923-5.776-7.82-8.787-11.602c-4.044-0.6-8.071-1.388-12-2.351
			C22.225,66.691,24.982,70.302,27.651,73.98z"/>
	</g>
	<g>
		<path fill="#009CDE" d="M45.766,66.322c3.385,4.284,6.827,8.849,10.234,13.651c4.956,0.353,9.91,0.435,14.868,0.284
			c-3.481-4.857-7.04-9.533-10.576-13.977C55.461,66.507,50.619,66.531,45.766,66.322z"/>
		<path fill="#FFFFFF" d="M66.173,80.942c-3.449,0-6.886-0.118-10.216-0.356c-0.183-0.013-0.351-0.107-0.458-0.259
			c-3.21-4.525-6.646-9.109-10.212-13.626c-0.15-0.188-0.175-0.445-0.066-0.66c0.109-0.213,0.325-0.346,0.573-0.332
			c4.673,0.205,9.533,0.191,14.47-0.041c0.201-0.01,0.386,0.078,0.508,0.232c3.747,4.706,7.311,9.417,10.594,14
			c0.132,0.185,0.152,0.426,0.051,0.63c-0.101,0.201-0.304,0.334-0.531,0.34C69.309,80.919,67.723,80.942,66.173,80.942z
			 M56.332,79.384c4.333,0.298,8.799,0.396,13.362,0.292c-3.026-4.189-6.28-8.479-9.687-12.769
			c-4.403,0.197-8.728,0.225-12.938,0.08C50.294,71.101,53.405,75.264,56.332,79.384z"/>
	</g>
	<g>
		<path fill="#009CDE" d="M65.783,23.471c3.738,3.635,7.68,7.484,11.741,11.516c0.047,15.115-2.671,30.275-6.751,44.913
			c-3.453-4.73-6.978-9.284-10.479-13.618C63.832,52.524,66.109,38.053,65.783,23.471z"/>
		<path fill="#FFFFFF" d="M70.772,80.513c-0.193,0-0.378-0.093-0.496-0.252c-3.228-4.425-6.748-8.998-10.46-13.594
			c-0.122-0.152-0.165-0.352-0.117-0.539c3.977-15.458,5.767-29.407,5.471-42.644c-0.006-0.248,0.141-0.476,0.368-0.576
			c0.229-0.098,0.494-0.05,0.672,0.123c2.866,2.786,7.202,7.01,11.746,11.52c0.115,0.115,0.18,0.27,0.181,0.434
			c0.043,13.826-2.173,28.573-6.774,45.08c-0.063,0.226-0.25,0.396-0.481,0.438C70.846,80.509,70.808,80.513,70.772,80.513z
			 M60.963,66.136c3.37,4.178,6.579,8.336,9.556,12.379c4.314-15.803,6.407-29.973,6.392-43.272
			c-3.941-3.912-7.716-7.598-10.491-10.297C66.557,37.766,64.767,51.262,60.963,66.136z"/>
	</g>
	<g>
		<path fill="#86D0F4" d="M17.76,62.096c4.708,1.19,9.401,2.086,14.08,2.722c1.45-3.314,2.856-6.803,4.187-10.44
			c4.552-0.029,9.083-0.246,13.594-0.621c-1.121,4.21-2.366,8.315-3.7,12.294c4.841,0.156,9.671,0.071,14.488-0.214
			c3.411-13.826,5.546-28.323,5.095-42.923c-3.632,1.363-7.359,2.709-11.166,4.013c-0.417,4.697-1.061,9.338-1.886,13.9
			c-4.16,0.826-8.36,1.559-12.594,2.165c1.161-4.013,2.205-8.152,3.092-12.39c-3.89,1.113-7.837,2.162-11.834,3.113
			C27.25,44.73,22.521,54.474,17.76,62.096z"/>
		<path fill="#FFFFFF" d="M50.746,66.739c-1.623,0-3.253-0.025-4.845-0.075c-0.194-0.007-0.373-0.105-0.484-0.265
			c-0.11-0.158-0.139-0.361-0.077-0.545c1.278-3.816,2.443-7.654,3.462-11.417c-4.189,0.329-8.336,0.514-12.346,0.55
			c-1.249,3.389-2.61,6.778-4.053,10.077c-0.11,0.25-0.371,0.401-0.645,0.359c-4.787-0.65-9.546-1.569-14.148-2.734
			c-0.189-0.048-0.346-0.185-0.417-0.366c-0.074-0.181-0.055-0.388,0.048-0.553c5.047-8.079,9.645-17.849,13.297-28.259
			c0.069-0.197,0.234-0.345,0.437-0.394c3.782-0.899,7.753-1.944,11.806-3.106c0.206-0.059,0.428-0.006,0.586,0.141
			c0.158,0.146,0.227,0.365,0.183,0.574c-0.793,3.796-1.748,7.666-2.841,11.521c3.619-0.536,7.384-1.188,11.214-1.942
			c0.813-4.559,1.419-9.076,1.804-13.432c0.021-0.242,0.183-0.449,0.412-0.527c3.58-1.227,7.227-2.536,11.149-4.006
			c0.186-0.068,0.393-0.045,0.557,0.065s0.265,0.292,0.271,0.49c0.412,13.378-1.26,27.473-5.113,43.087
			c-0.064,0.261-0.291,0.45-0.56,0.466C57.159,66.641,53.896,66.739,50.746,66.739z M46.762,65.461
			c4.261,0.113,8.661,0.042,13.159-0.211c3.668-14.999,5.303-28.576,4.994-41.461c-3.494,1.301-6.777,2.48-10.001,3.588
			c-0.402,4.402-1.027,8.961-1.856,13.559c-0.045,0.247-0.238,0.441-0.484,0.492c-4.325,0.859-8.573,1.588-12.628,2.17
			c-0.206,0.029-0.413-0.049-0.549-0.205c-0.136-0.158-0.185-0.373-0.126-0.572c1.097-3.791,2.061-7.604,2.869-11.35
			c-3.616,1.021-7.161,1.951-10.555,2.764c-3.555,10.069-7.991,19.539-12.86,27.469c4.155,1.021,8.436,1.843,12.741,2.444
			c1.42-3.271,2.761-6.627,3.987-9.98c0.087-0.241,0.314-0.401,0.571-0.403c4.387-0.027,8.944-0.236,13.547-0.619
			c0.197-0.018,0.393,0.065,0.521,0.218s0.174,0.359,0.123,0.551C49.201,57.714,48.041,61.594,46.762,65.461z"/>
	</g>
	<g>
		<path fill="#86D0F4" d="M34.673,22.333c2.442,2.394,5.158,5.087,8.099,8.063c-1.776,8.375-4.167,16.364-6.864,23.746
			c-3.174-3.583-6.215-6.861-9.06-9.808C29.815,37.635,32.518,30.221,34.673,22.333z"/>
		<path fill="#FFFFFF" d="M35.908,54.756c-0.174,0-0.341-0.074-0.458-0.208c-3.016-3.401-6.058-6.694-9.042-9.787
			c-0.173-0.179-0.22-0.445-0.12-0.674c3.132-7.075,5.755-14.448,7.793-21.916c0.057-0.21,0.222-0.372,0.431-0.429
			c0.211-0.058,0.435,0,0.59,0.152c2.723,2.67,5.451,5.385,8.105,8.07c0.146,0.146,0.207,0.356,0.164,0.559
			c-1.669,7.874-3.988,15.892-6.888,23.829c-0.074,0.202-0.25,0.353-0.461,0.393C35.984,54.752,35.945,54.756,35.908,54.756z
			 M27.575,44.206c2.679,2.783,5.401,5.726,8.107,8.761c2.679-7.461,4.837-14.98,6.421-22.374c-2.336-2.36-4.725-4.742-7.117-7.093
			C33.009,30.549,30.519,37.509,27.575,44.206z"/>
	</g>
	<g>
		<path fill="#86D0F4" d="M8.897,51.997c4.53,0.83,9.039,1.402,13.53,1.753c1.536-2.903,3.039-6.002,4.478-9.272
			c4.32-0.381,8.607-0.933,12.853-1.616c-1.172,3.899-2.458,7.673-3.819,11.296c4.67-0.078,9.318-0.359,13.938-0.813
			c3.254-12.829,5.36-26.543,5.088-40.509c-3.204,1.617-6.529,3.245-9.956,4.853c-0.545,4.456-1.295,8.839-2.209,13.12
			c-3.854,1.104-7.764,2.141-11.724,3.083c1.313-3.716,2.524-7.577,3.597-11.559c-3.458,1.44-6.99,2.842-10.584,4.179
			C19.517,36.792,14.197,45.585,8.897,51.997z"/>
		<path fill="#FFFFFF" d="M35.938,54.77c-0.2,0-0.386-0.096-0.502-0.259c-0.116-0.166-0.143-0.379-0.072-0.568
			c1.282-3.408,2.465-6.875,3.523-10.321c-3.941,0.613-7.826,1.096-11.567,1.434c-1.372,3.096-2.835,6.115-4.351,8.982
			c-0.114,0.214-0.349,0.339-0.59,0.323c-4.597-0.357-9.169-0.95-13.592-1.759c-0.214-0.04-0.392-0.19-0.466-0.394
			c-0.074-0.205-0.035-0.433,0.103-0.601c5.428-6.569,10.651-15.334,15.104-25.346c0.066-0.15,0.192-0.27,0.347-0.326
			c3.409-1.268,6.963-2.671,10.562-4.17c0.216-0.088,0.464-0.049,0.64,0.105c0.175,0.154,0.249,0.395,0.188,0.621
			c-0.944,3.506-2.032,7.046-3.238,10.54c3.316-0.805,6.757-1.716,10.25-2.713c0.9-4.267,1.615-8.538,2.125-12.706
			c0.025-0.209,0.157-0.391,0.348-0.48c3.213-1.508,6.557-3.138,9.939-4.844c0.188-0.095,0.412-0.086,0.593,0.022
			c0.18,0.108,0.292,0.303,0.295,0.513c0.247,12.654-1.472,26.339-5.106,40.672c-0.064,0.25-0.277,0.435-0.535,0.46
			c-4.746,0.465-9.453,0.738-13.987,0.813C35.945,54.77,35.941,54.77,35.938,54.77z M39.758,42.249c0.176,0,0.344,0.074,0.461,0.208
			c0.14,0.16,0.187,0.38,0.127,0.582c-1.052,3.494-2.234,7.02-3.518,10.487c4.085-0.092,8.305-0.342,12.559-0.751
			c3.443-13.705,5.117-26.804,4.98-38.952c-2.987,1.499-5.939,2.934-8.79,4.275c-0.527,4.214-1.259,8.53-2.178,12.837
			c-0.047,0.221-0.212,0.398-0.43,0.461c-4.019,1.152-7.972,2.191-11.751,3.091c-0.218,0.051-0.448-0.019-0.597-0.187
			c-0.15-0.167-0.197-0.402-0.122-0.613c1.204-3.41,2.296-6.872,3.251-10.31c-3.132,1.29-6.223,2.505-9.207,3.618
			c-4.292,9.609-9.296,18.079-14.513,24.582c3.932,0.687,7.977,1.198,12.043,1.528c1.489-2.836,2.925-5.82,4.27-8.877
			c0.091-0.204,0.285-0.344,0.508-0.363c4.128-0.364,8.438-0.906,12.81-1.608C39.693,42.252,39.725,42.249,39.758,42.249z"/>
	</g>
	<g>
		<path fill="#86D0F4" d="M31.84,64.817c-3.251-4.023-6.412-7.722-9.413-11.067c-4.491-0.351-9-0.923-13.53-1.753
			c2.794,2.983,5.769,6.358,8.862,10.099C22.468,63.286,27.161,64.182,31.84,64.817z"/>
		<path fill="#FFFFFF" d="M31.841,65.431c-0.027,0-0.056-0.003-0.083-0.007c-4.787-0.65-9.546-1.569-14.148-2.734
			c-0.126-0.032-0.239-0.104-0.322-0.204c-2.975-3.596-5.948-6.982-8.837-10.067c-0.18-0.194-0.217-0.482-0.09-0.715
			s0.388-0.355,0.648-0.309c4.381,0.804,8.912,1.389,13.466,1.743c0.158,0.012,0.304,0.085,0.409,0.203
			c3.143,3.501,6.317,7.234,9.434,11.092c0.159,0.195,0.181,0.467,0.058,0.685C32.265,65.313,32.059,65.431,31.841,65.431z
			 M18.104,61.55c4.001,1.006,8.123,1.825,12.275,2.44c-2.731-3.344-5.499-6.583-8.244-9.648c-3.893-0.311-7.768-0.788-11.548-1.425
			C13.058,55.606,15.58,58.504,18.104,61.55z"/>
	</g>
	<g>
		<path fill="#86D0F4" d="M35.938,54.157c3.215,3.659,6.569,7.636,9.981,11.893c4.841,0.156,9.671,0.071,14.488-0.214
			c-3.566-4.406-7.106-8.584-10.532-12.491C45.257,53.798,40.608,54.079,35.938,54.157z"/>
		<path fill="#FFFFFF" d="M50.747,66.739C50.746,66.739,50.747,66.739,50.747,66.739c-1.624,0-3.254-0.025-4.846-0.075
			c-0.179-0.006-0.346-0.092-0.459-0.23c-3.226-4.024-6.579-8.018-9.964-11.872c-0.158-0.179-0.196-0.435-0.1-0.652
			c0.096-0.219,0.311-0.36,0.549-0.364c4.503-0.077,9.176-0.347,13.889-0.81c0.197-0.021,0.391,0.057,0.521,0.205
			c3.632,4.142,7.181,8.35,10.548,12.509c0.144,0.18,0.177,0.423,0.083,0.634c-0.092,0.211-0.294,0.352-0.524,0.365
			C57.159,66.641,53.896,66.739,50.747,66.739z M46.222,65.445c4.187,0.128,8.521,0.076,12.953-0.155
			c-3.065-3.763-6.273-7.562-9.552-11.305c-4.183,0.402-8.332,0.657-12.358,0.758C40.306,58.23,43.313,61.824,46.222,65.445z"/>
	</g>
	<g>
		<path fill="#86D0F4" d="M54.965,12.836c3.26,3.123,6.796,6.491,10.539,10.077c0.399,14.497-1.769,28.888-5.201,42.592
			c-3.53-4.286-7.033-8.354-10.426-12.16C53.13,40.516,55.237,26.802,54.965,12.836z"/>
		<path fill="#FFFFFF" d="M60.302,66.12c-0.18,0-0.354-0.081-0.472-0.223c-3.307-4.018-6.81-8.104-10.411-12.145
			c-0.136-0.151-0.188-0.361-0.137-0.558c3.608-14.227,5.313-27.803,5.069-40.348c-0.004-0.246,0.14-0.473,0.367-0.572
			s0.492-0.052,0.67,0.118c1.51,1.446,3.078,2.945,4.7,4.494c1.879,1.796,3.829,3.657,5.839,5.583
			c0.116,0.113,0.185,0.265,0.189,0.426c0.365,13.287-1.341,27.273-5.219,42.757c-0.057,0.226-0.235,0.399-0.461,0.45
			C60.393,66.114,60.348,66.12,60.302,66.12z M50.55,53.18c3.257,3.66,6.43,7.354,9.451,10.997
			c3.62-14.808,5.223-28.233,4.897-40.995c-1.945-1.862-3.833-3.666-5.655-5.407c-1.247-1.191-2.463-2.353-3.646-3.483
			C55.688,26.439,53.992,39.514,50.55,53.18z"/>
	</g>
	<g>
		<path fill="#003A78" d="M8.606,51.724c4.569,0.826,9.118,1.392,13.645,1.731c1.554-2.927,3.073-6.055,4.529-9.354
			c4.33-0.352,8.627-0.861,12.891-1.5c-1.174,3.894-2.46,7.668-3.824,11.287c4.666-0.085,9.308-0.373,13.923-0.83
			c3.253-12.82,5.357-26.524,5.079-40.482c-3.194,1.619-6.507,3.249-9.923,4.863c-0.545,4.455-1.297,8.834-2.211,13.113
			c-3.844,1.111-7.747,2.156-11.7,3.107c1.316-3.713,2.531-7.576,3.604-11.557c-3.543,1.479-7.164,2.916-10.849,4.288
			C19.192,36.611,13.886,45.351,8.606,51.724z"/>
		<path fill="#FFFFFF" d="M35.847,54.502c-0.199,0-0.387-0.098-0.501-0.261c-0.118-0.166-0.145-0.38-0.073-0.568
			c1.282-3.403,2.468-6.872,3.529-10.323c-3.946,0.572-7.844,1.019-11.608,1.331c-1.395,3.141-2.875,6.187-4.401,9.063
			c-0.114,0.216-0.346,0.339-0.587,0.323c-4.641-0.348-9.252-0.934-13.708-1.74c-0.215-0.039-0.393-0.188-0.467-0.394
			c-0.075-0.203-0.035-0.433,0.104-0.602c5.401-6.52,10.615-15.229,15.076-25.188c0.068-0.15,0.191-0.268,0.346-0.325
			c3.514-1.31,7.156-2.749,10.827-4.28c0.216-0.092,0.465-0.051,0.641,0.105c0.176,0.152,0.248,0.393,0.187,0.619
			c-0.945,3.508-2.035,7.047-3.244,10.535c3.296-0.81,6.729-1.725,10.225-2.732c0.901-4.27,1.616-8.54,2.125-12.701
			c0.026-0.207,0.157-0.389,0.347-0.479c3.215-1.52,6.549-3.153,9.908-4.856c0.188-0.095,0.412-0.087,0.593,0.021
			c0.181,0.109,0.294,0.303,0.298,0.514C55.714,25.212,54,38.887,50.364,53.21c-0.063,0.249-0.277,0.434-0.534,0.459
			c-4.759,0.471-9.46,0.752-13.973,0.833C35.854,54.502,35.85,54.502,35.847,54.502z M39.671,41.988
			c0.176,0,0.346,0.076,0.463,0.213c0.137,0.158,0.184,0.375,0.124,0.578c-1.054,3.496-2.236,7.016-3.521,10.477
			c4.068-0.097,8.281-0.354,12.545-0.766c3.442-13.695,5.114-26.783,4.97-38.926c-2.966,1.495-5.907,2.934-8.759,4.283
			c-0.524,4.209-1.257,8.523-2.178,12.832c-0.047,0.222-0.212,0.399-0.429,0.463c-4.025,1.162-7.97,2.211-11.727,3.113
			c-0.219,0.051-0.449-0.019-0.599-0.186c-0.15-0.168-0.197-0.404-0.123-0.616c1.208-3.405,2.302-6.866,3.26-10.304
			c-3.209,1.322-6.389,2.575-9.473,3.727c-4.3,9.555-9.291,17.971-14.482,24.424c3.965,0.684,8.046,1.192,12.155,1.513
			c1.5-2.846,2.954-5.86,4.323-8.96c0.09-0.205,0.286-0.346,0.511-0.363c4.153-0.337,8.476-0.84,12.849-1.496
			C39.61,41.99,39.641,41.988,39.671,41.988z"/>
	</g>
	<g>
		<path fill="#003A78" d="M28.08,15.735c1.832,1.757,3.975,3.829,6.394,6.201c-2.148,7.87-4.841,15.273-7.795,21.968
			c-2.828-2.92-5.458-5.513-7.842-7.75C22.219,30.07,25.389,23.182,28.08,15.735z"/>
		<path fill="#FFFFFF" d="M26.679,44.518c-0.165,0-0.325-0.067-0.44-0.187c-2.743-2.831-5.375-5.434-7.821-7.73
			c-0.205-0.19-0.253-0.499-0.116-0.745c3.518-6.324,6.614-13.164,9.202-20.328c0.07-0.195,0.235-0.341,0.437-0.389
			c0.202-0.047,0.414,0.012,0.564,0.154c2.175,2.088,4.268,4.116,6.399,6.205c0.158,0.156,0.221,0.385,0.162,0.6
			c-2.048,7.509-4.682,14.93-7.826,22.056c-0.082,0.185-0.251,0.319-0.453,0.354C26.75,44.515,26.714,44.518,26.679,44.518z
			 M19.604,36.034c2.171,2.05,4.481,4.327,6.879,6.788c2.911-6.703,5.366-13.66,7.304-20.7c-1.817-1.78-3.61-3.521-5.454-5.292
			C25.847,23.578,22.913,30.031,19.604,36.034z"/>
	</g>
	<g>
		<path fill="#003A78" d="M0.859,44.04c4.347,0.385,8.668,0.544,12.961,0.516c1.719-2.548,3.414-5.321,5.057-8.288
			c4.068-0.777,8.09-1.693,12.055-2.715c-1.32,3.611-2.739,7.074-4.225,10.359c4.443-0.404,8.852-0.982,13.217-1.7
			c3.421-11.882,5.825-24.843,6.057-38.218c-2.751,1.945-5.651,3.922-8.675,5.909c-0.773,4.239-1.732,8.384-2.835,12.405
			c-3.512,1.464-7.102,2.887-10.754,4.243c1.551-3.444,3.018-7.062,4.362-10.816c-3.113,1.858-6.319,3.701-9.605,5.505
			C12.985,30.842,6.881,38.757,0.859,44.04z"/>
		<path fill="#FFFFFF" d="M12.836,45.171c-4.087,0-8.135-0.174-12.03-0.521c-0.245-0.021-0.453-0.186-0.529-0.419
			c-0.077-0.234-0.006-0.489,0.178-0.651c5.958-5.229,12.006-13.059,17.487-22.644c0.057-0.099,0.138-0.179,0.237-0.233
			c3.128-1.717,6.353-3.564,9.586-5.493c0.221-0.134,0.502-0.111,0.703,0.052c0.2,0.166,0.275,0.438,0.188,0.681
			c-1.148,3.21-2.419,6.405-3.786,9.522c2.953-1.113,6.002-2.324,9.087-3.607c1.094-4.02,2.017-8.076,2.745-12.064
			c0.03-0.165,0.126-0.311,0.267-0.402c2.942-1.932,5.854-3.916,8.659-5.896c0.188-0.135,0.436-0.149,0.64-0.043
			c0.205,0.109,0.33,0.322,0.327,0.555c-0.211,12.184-2.256,25.095-6.082,38.376c-0.065,0.228-0.256,0.397-0.489,0.435
			c-4.531,0.744-8.993,1.319-13.26,1.707c-0.22,0.022-0.429-0.078-0.555-0.254c-0.127-0.18-0.149-0.41-0.059-0.609
			c1.35-2.986,2.628-6.084,3.804-9.225c-3.626,0.912-7.211,1.711-10.679,2.38c-1.593,2.861-3.257,5.579-4.945,8.082
			c-0.113,0.168-0.302,0.27-0.504,0.271C13.495,45.17,13.166,45.171,12.836,45.171z M2.323,43.547
			c3.633,0.281,7.392,0.411,11.169,0.396c1.656-2.473,3.286-5.153,4.849-7.974c0.088-0.158,0.242-0.271,0.421-0.304
			c3.889-0.744,7.932-1.655,12.017-2.706c0.222-0.058,0.455,0.013,0.607,0.181c0.153,0.17,0.2,0.41,0.121,0.624
			c-1.172,3.205-2.453,6.376-3.811,9.439c3.799-0.37,7.742-0.886,11.745-1.534c3.6-12.607,5.583-24.87,5.899-36.476
			c-2.436,1.706-4.945,3.409-7.479,5.077c-0.745,4.036-1.686,8.139-2.799,12.199c-0.05,0.183-0.181,0.332-0.355,0.404
			c-3.674,1.53-7.299,2.961-10.776,4.253c-0.231,0.085-0.492,0.024-0.662-0.156c-0.168-0.181-0.212-0.445-0.111-0.671
			c1.347-2.989,2.608-6.064,3.758-9.162c-2.697,1.59-5.379,3.119-7.994,4.556C13.72,30.765,8.004,38.285,2.323,43.547z"/>
	</g>
	<g>
		<path fill="#003A78" d="M22.251,53.455c-2.99-3.328-5.82-6.303-8.431-8.899c-4.293,0.028-8.614-0.131-12.961-0.516
			c2.367,2.156,4.965,4.726,7.747,7.684C13.175,52.55,17.725,53.115,22.251,53.455z"/>
		<path fill="#FFFFFF" d="M22.252,54.068c-0.016,0-0.032-0.001-0.047-0.002c-4.641-0.348-9.252-0.934-13.708-1.74
			c-0.13-0.023-0.248-0.088-0.338-0.183c-2.703-2.874-5.297-5.447-7.713-7.649c-0.194-0.179-0.254-0.459-0.148-0.699
			c0.105-0.242,0.35-0.39,0.615-0.365c4.171,0.371,8.525,0.537,12.903,0.512c0.176,0.008,0.321,0.063,0.436,0.179
			c2.725,2.711,5.568,5.714,8.454,8.926c0.167,0.186,0.205,0.456,0.094,0.681C22.698,53.937,22.483,54.068,22.252,54.068z
			 M8.914,51.156c3.859,0.69,7.836,1.216,11.846,1.562c-2.452-2.692-4.865-5.228-7.191-7.548c-3.713,0.023-7.411-0.107-10.992-0.376
			C4.594,46.694,6.718,48.827,8.914,51.156z"/>
	</g>
	<g>
		<path fill="#003A78" d="M26.708,43.912c2.863,2.99,5.931,6.325,9.139,9.977c4.666-0.085,9.308-0.373,13.923-0.83
			c-3.421-3.898-6.727-7.526-9.846-10.847C35.559,42.93,31.151,43.508,26.708,43.912z"/>
		<path fill="#FFFFFF" d="M35.847,54.502c-0.177,0-0.344-0.076-0.461-0.208c-3.036-3.458-6.105-6.808-9.12-9.956
			c-0.164-0.17-0.214-0.418-0.132-0.641c0.083-0.219,0.285-0.373,0.52-0.394c4.239-0.387,8.67-0.958,13.172-1.697
			c0.202-0.032,0.406,0.038,0.546,0.185c3.315,3.53,6.632,7.185,9.861,10.863c0.151,0.173,0.193,0.416,0.11,0.63
			c-0.085,0.214-0.283,0.363-0.511,0.385c-4.759,0.471-9.46,0.752-13.973,0.833C35.854,54.502,35.85,54.502,35.847,54.502z
			 M28.023,44.404c2.683,2.827,5.4,5.804,8.096,8.866c4.015-0.078,8.179-0.316,12.398-0.708c-2.896-3.28-5.856-6.536-8.816-9.692
			C35.725,43.516,31.803,44.03,28.023,44.404z"/>
	</g>
	<g>
		<path fill="#003A78" d="M45.981,3.994c2.643,2.598,5.618,5.464,8.868,8.582c0.234,13.865-1.902,27.471-5.181,40.185
			c-3.385-3.789-6.655-7.316-9.744-10.549C43.346,30.33,45.75,17.369,45.981,3.994z"/>
		<path fill="#FFFFFF" d="M49.668,53.373c-0.172,0-0.339-0.072-0.458-0.204c-3.191-3.571-6.465-7.116-9.729-10.533
			c-0.151-0.157-0.207-0.384-0.146-0.594c3.795-13.177,5.824-25.982,6.034-38.059c0.004-0.244,0.154-0.464,0.38-0.557
			c0.228-0.093,0.487-0.042,0.662,0.13c2.3,2.261,4.95,4.825,8.863,8.576c0.118,0.113,0.186,0.27,0.188,0.432
			c0.212,12.567-1.539,26.143-5.201,40.35c-0.056,0.219-0.229,0.389-0.448,0.442C49.765,53.368,49.716,53.373,49.668,53.373z
			 M40.61,42.043c2.932,3.074,5.871,6.249,8.747,9.451c3.418-13.6,5.061-26.596,4.883-38.652c-3.262-3.129-5.64-5.428-7.679-7.42
			C46.226,17.084,44.226,29.395,40.61,42.043z"/>
	</g>
</g>
<g>
	<g>
		<path fill="#003A78" d="M102.431,53.854h-2.951V42.987H89.268v10.867h-2.953V31.656h2.953v8.707h10.212v-8.707h2.951V53.854z"/>
	</g>
	<g>
		<path fill="#003A78" d="M116.011,52.082c-0.228,0.168-0.532,0.403-0.917,0.705c-0.382,0.305-0.753,0.545-1.109,0.725
			c-0.497,0.258-0.977,0.458-1.438,0.597c-0.462,0.138-1.111,0.209-1.945,0.209c-0.687,0-1.337-0.13-1.954-0.388
			c-0.616-0.259-1.158-0.622-1.625-1.088c-0.447-0.459-0.805-1.021-1.073-1.693c-0.269-0.671-0.402-1.379-0.402-2.125
			c0-1.151,0.243-2.133,0.73-2.943c0.487-0.81,1.258-1.453,2.311-1.93c0.935-0.43,2.038-0.725,3.31-0.889
			c1.272-0.163,2.644-0.285,4.113-0.364v-0.538c0-0.654-0.098-1.185-0.299-1.586c-0.197-0.403-0.476-0.715-0.833-0.933
			c-0.357-0.228-0.795-0.38-1.312-0.454c-0.517-0.074-1.048-0.113-1.596-0.113c-0.645,0-1.405,0.098-2.281,0.291
			c-0.874,0.193-1.749,0.477-2.623,0.843h-0.165v-2.847c0.517-0.15,1.257-0.314,2.22-0.492c0.965-0.18,1.919-0.269,2.863-0.269
			c1.143,0,2.107,0.089,2.893,0.269c0.786,0.178,1.49,0.501,2.117,0.97c0.607,0.456,1.06,1.048,1.355,1.772
			c0.3,0.727,0.449,1.611,0.449,2.654v11.39h-2.79V52.082z M116.011,49.755v-4.621c-0.665,0.06-1.508,0.142-2.526,0.246
			c-1.019,0.104-1.842,0.251-2.467,0.438c-0.745,0.229-1.362,0.58-1.848,1.052c-0.488,0.472-0.731,1.13-0.731,1.976
			c0,0.954,0.268,1.674,0.805,2.162c0.538,0.485,1.323,0.73,2.356,0.73c0.885,0,1.685-0.191,2.399-0.574
			C114.716,50.781,115.386,50.312,116.011,49.755z"/>
	</g>
	<g>
		<path fill="#003A78" d="M136.703,45.089c0,2.772-0.662,4.981-1.989,6.625c-1.327,1.646-3.006,2.47-5.03,2.47
			c-0.825,0-1.557-0.096-2.193-0.284c-0.634-0.188-1.287-0.482-1.952-0.881v6.978h-2.802V37.202h2.802v1.745
			c0.695-0.627,1.468-1.152,2.319-1.574c0.849-0.421,1.775-0.634,2.777-0.634c1.911,0,3.399,0.757,4.468,2.267
			C136.169,40.516,136.703,42.545,136.703,45.089z M133.812,45.401c0-1.897-0.303-3.371-0.909-4.419
			c-0.606-1.049-1.59-1.574-2.951-1.574c-0.795,0-1.563,0.178-2.305,0.529c-0.739,0.354-1.443,0.809-2.108,1.364v9.438
			c0.734,0.356,1.363,0.601,1.887,0.73c0.521,0.129,1.119,0.193,1.796,0.193c1.452,0,2.578-0.531,3.383-1.595
			C133.41,49.004,133.812,47.45,133.812,45.401z"/>
	</g>
	<g>
		<path fill="#003A78" d="M148.437,40.215h-0.148c-0.208-0.061-0.431-0.098-0.663-0.113c-0.234-0.015-0.515-0.021-0.843-0.021
			c-0.757,0-1.506,0.164-2.252,0.492c-0.745,0.327-1.449,0.814-2.116,1.461v11.821h-2.804V37.202h2.804v2.476
			c1.022-0.904,1.915-1.544,2.676-1.916c0.759-0.373,1.498-0.56,2.215-0.56c0.286,0,0.504,0.007,0.646,0.022
			c0.145,0.016,0.306,0.037,0.485,0.066V40.215z"/>
	</g>
	<g>
		<path fill="#003A78" d="M164.164,45.535c0,2.803-0.675,4.968-2.026,6.493c-1.351,1.526-3.151,2.289-5.397,2.289
			c-2.316,0-4.139-0.789-5.464-2.364c-1.327-1.574-1.989-3.714-1.989-6.418c0-2.781,0.683-4.943,2.051-6.484
			c1.363-1.539,3.166-2.312,5.402-2.312c2.246,0,4.047,0.769,5.397,2.304C163.489,40.578,164.164,42.744,164.164,45.535z
			 M161.272,45.535c0-2.156-0.394-3.759-1.179-4.807c-0.785-1.05-1.902-1.573-3.354-1.573c-1.462,0-2.587,0.523-3.378,1.573
			c-0.788,1.048-1.182,2.65-1.182,4.807c0,2.089,0.394,3.672,1.182,4.75c0.791,1.078,1.916,1.617,3.378,1.617
			c1.441,0,2.557-0.53,3.348-1.588C160.879,49.256,161.272,47.662,161.272,45.535z"/>
	</g>
	<g>
		<path fill="#003A78" d="M172.083,54.184c-1.532,0-2.726-0.436-3.58-1.305c-0.855-0.871-1.282-2.245-1.282-4.123v-9.229h-1.895
			v-2.325h1.895v-4.784h2.804v4.784h5.156v2.325h-5.156v7.918c0,0.844,0.014,1.495,0.043,1.952c0.03,0.456,0.144,0.885,0.345,1.282
			c0.169,0.348,0.439,0.608,0.818,0.782c0.376,0.173,0.89,0.261,1.536,0.261c0.456,0,0.898-0.066,1.327-0.201
			c0.426-0.134,0.734-0.246,0.924-0.336h0.163v2.519c-0.526,0.15-1.062,0.268-1.602,0.353
			C173.036,54.14,172.538,54.184,172.083,54.184z"/>
	</g>
	<g>
		<path fill="#003A78" d="M184.485,54.241c-2.656,0-4.714-0.746-6.181-2.242c-1.466-1.496-2.198-3.621-2.198-6.373
			c0-2.714,0.71-4.873,2.132-6.479c1.42-1.604,3.279-2.407,5.576-2.407c1.032,0,1.946,0.149,2.742,0.448
			c0.795,0.299,1.491,0.766,2.088,1.401c0.595,0.636,1.052,1.414,1.37,2.333c0.317,0.92,0.478,2.045,0.478,3.376v1.521h-11.539
			c0,1.939,0.486,3.42,1.461,4.443c0.973,1.023,2.321,1.536,4.04,1.536c0.614,0,1.22-0.069,1.813-0.209
			c0.591-0.139,1.125-0.318,1.602-0.536c0.506-0.229,0.935-0.45,1.284-0.664c0.346-0.214,0.633-0.414,0.862-0.604h0.163v3.058
			c-0.325,0.129-0.735,0.289-1.221,0.482c-0.486,0.195-0.925,0.347-1.311,0.455c-0.549,0.15-1.042,0.265-1.487,0.344
			C185.718,54.202,185.159,54.241,184.485,54.241z M187.764,43.672c-0.02-0.754-0.109-1.406-0.269-1.953
			c-0.159-0.546-0.388-1.008-0.687-1.386c-0.326-0.417-0.747-0.737-1.26-0.955c-0.512-0.218-1.144-0.327-1.899-0.327
			c-0.747,0-1.379,0.112-1.899,0.336c-0.522,0.223-0.999,0.549-1.427,0.977c-0.415,0.437-0.733,0.921-0.951,1.452
			c-0.221,0.532-0.359,1.151-0.419,1.856H187.764z"/>
	</g>
	<g>
		<path fill="#003A78" d="M199.943,54.227c-1.143,0-2.191-0.175-3.145-0.529c-0.955-0.352-1.775-0.886-2.461-1.602
			c-0.687-0.716-1.219-1.618-1.595-2.706c-0.379-1.088-0.567-2.367-0.567-3.839c0-1.461,0.197-2.723,0.59-3.787
			c0.392-1.063,0.916-1.957,1.572-2.683c0.655-0.726,1.475-1.286,2.453-1.678c0.977-0.392,2.028-0.589,3.152-0.589
			c0.913,0,1.796,0.13,2.647,0.388c0.849,0.258,1.605,0.558,2.272,0.894v3.147h-0.164c-0.198-0.169-0.455-0.363-0.769-0.583
			c-0.313-0.218-0.693-0.441-1.14-0.67c-0.388-0.199-0.845-0.373-1.372-0.521c-0.525-0.149-1.034-0.224-1.521-0.224
			c-1.449,0-2.614,0.548-3.495,1.646c-0.879,1.099-1.319,2.651-1.319,4.659c0,1.97,0.425,3.502,1.276,4.6
			c0.849,1.098,2.029,1.647,3.538,1.647c0.916,0,1.784-0.189,2.61-0.567c0.824-0.378,1.555-0.863,2.191-1.461h0.164v3.146
			c-0.278,0.129-0.627,0.287-1.043,0.47c-0.418,0.185-0.797,0.319-1.134,0.41c-0.478,0.14-0.905,0.247-1.283,0.32
			C201.027,54.19,200.54,54.227,199.943,54.227z"/>
	</g>
	<g>
		<path fill="#003A78" d="M220.501,53.854h-2.804v-9.482c0-0.765-0.035-1.478-0.111-2.138c-0.073-0.662-0.217-1.19-0.425-1.588
			c-0.229-0.418-0.547-0.729-0.952-0.932c-0.408-0.204-0.965-0.307-1.67-0.307c-0.696,0-1.415,0.188-2.154,0.559
			c-0.74,0.375-1.465,0.859-2.17,1.455v12.433h-2.803V30.658h2.803v8.393c0.835-0.744,1.659-1.316,2.474-1.715
			c0.816-0.396,1.677-0.597,2.58-0.597c1.641,0,2.923,0.54,3.847,1.618s1.386,2.642,1.386,4.688V53.854z"/>
	</g>
</g>
</svg>
